<!--?xml version="1.0" encoding="utf-8"?-->
<!-- Generator: Adobe Illustrator 18.1.1, SVG Export Plug-In . SVG Version: 6.00 Build 0)  -->

<svg version="1.1" id="_x32_" xmlns="http://www.w3.org/2000/svg" xmlns:xlink="http://www.w3.org/1999/xlink" x="0px" y="0px" viewBox="0 0 512 512" style="width: 256px; height: 256px; opacity: 1;" xml:space="preserve">
<style type="text/css">
	.st0{fill:#4B4B4B;}
</style>
<g>
	<path class="st0" d="M497.106,233.834c-4.838-5.339-10.679-9.454-17.263-12.124c-6.584-2.77-13.77-4.214-21.277-4.214
		c-7.186,0-14.392,1.334-21.277,3.602c-6.785,2.359-13.469,5.652-19.21,10.067l-0.622,0.412l-0.201,0.1l-0.521,0.522
		c-0.623,0.512-1.847,1.436-3.493,2.569c-2.57,1.948-6.162,4.416-10.377,7.398c-16.862-60.008-59.697-90.941-125.878-93.66
		c1.164-20.706,4.717-40.517,13.75-44.683c28.182-13.007,80.191-10.84,114.857-41.179c34.666-30.37-21.658-82.37-91.03-30.341
		c-38.299,28.715-50.805,77.893-54.338,116.212c-67.264,2.87-99.822,45.687-111.826,73.096c-1.546,0.31-2.991,0.612-4.416,0.923
		c-20.776,4.938-36.794,12.947-49.74,22.1c-12.948,9.143-22.823,19.32-31.556,28.152c-1.746,1.857-3.492,3.704-5.339,5.45
		l-44.201,38.64C4.818,324.283,0,334.76,0,345.961v130.323c0,11.502,6.785,22.09,17.263,26.818c3.894,1.746,8.009,2.67,12.324,2.67
		c7.086,0,13.971-2.569,19.23-7.187l82.42-70.606l129.792,23.536c3.492,0.612,7.205,1.024,10.799,1.024
		c12.645,0,24.77-3.904,35.047-11.1c9.153-6.373,52.311-36.482,94.965-66.392c21.478-15.004,42.756-29.908,59.496-41.822
		c8.331-5.962,15.516-11.1,21.077-15.216c2.87-1.957,5.239-3.703,7.085-5.138c1.948-1.435,3.293-2.469,4.317-3.392v0.1l0.32-0.301
		l0.2-0.11l0.402-0.412c5.46-5.028,9.675-10.789,12.646-17.162c2.99-6.373,4.516-13.358,4.616-20.344v-0.722
		C512,257.169,506.661,244.221,497.106,233.834z M477.776,290.258c-12.726,10.589-185.293,130.524-185.293,130.524
		c-7.908,5.551-17.564,7.708-27.018,6.062l-135.151-24.56c-4.014-0.722-8.029,0.311-11.101,2.981l-86.734,74.3
		c-1.345,1.134-3.192,1.445-4.838,0.723c-1.546-0.723-2.569-2.369-2.569-4.005V345.961c0-3.904,1.645-7.598,4.616-10.066
		l44.823-39.263c17.464-17.473,33.702-37.206,66.582-47.382c13.77-4.206,30.431-6.775,51.287-6.775H305.43
		c15.616,0,28.262,12.636,28.262,28.262c0,15.618-12.646,28.263-28.262,28.263c0,0-58.894,0-77.682,0l0.301,0.202
		c-5.56-0.202-10.177,4.114-10.378,9.665c-0.2,5.55,4.115,10.277,9.656,10.378l0.421-0.101h105.443c0,0,45.425-29.808,75.333-50.363
		c11.502-7.808,20.756-14.392,24.248-17.263c13.87-10.387,34.726-12.956,45.827-0.722C489.82,262.92,489.92,279.058,477.776,290.258
		z" style="fill: rgb(75, 75, 75);"></path>
	<path class="st0" d="M178.006,82.143c33.262,8.331,60.701,8.672,78.024,32.518c0,0,6.504-23.846,10.86-34.686
		c0,0-38.902-76.166-93.199-73.688C125.978,8.455,125.978,69.146,178.006,82.143z" style="fill: rgb(75, 75, 75);"></path>
</g>
</svg>
