<!--?xml version="1.0" encoding="utf-8"?-->
<!-- Generator: Adobe Illustrator 18.1.1, SVG Export Plug-In . SVG Version: 6.00 Build 0)  -->

<svg version="1.1" id="_x32_" xmlns="http://www.w3.org/2000/svg" xmlns:xlink="http://www.w3.org/1999/xlink" x="0px" y="0px" viewBox="0 0 512 512" style="width: 256px; height: 256px; opacity: 1;" xml:space="preserve">
<style type="text/css">
	.st0{fill:#4B4B4B;}
</style>
<g>
	<polygon class="st0" points="257.194,382.917 258.455,318.647 222.489,318.647 223.742,382.917 	" style="fill: rgb(255, 99, 71);"></polygon>
	<polygon class="st0" points="388.436,291.759 393.321,236.081 353.03,236.081 349.884,291.759 	" style="fill: rgb(255, 99, 71);"></polygon>
	<polygon class="st0" points="285.935,291.759 322.914,291.759 326.061,236.081 287.04,236.081 	" style="fill: rgb(255, 99, 71);"></polygon>
	<polygon class="st0" points="321.398,318.647 285.416,318.647 284.156,382.917 317.766,382.917 	" style="fill: rgb(255, 99, 71);"></polygon>
	<polygon class="st0" points="260.078,236.081 220.866,236.081 221.954,291.759 258.982,291.759 	" style="fill: rgb(255, 99, 71);"></polygon>
	<polygon class="st0" points="196.78,382.917 195.52,318.647 159.53,318.647 163.178,382.917 	" style="fill: rgb(255, 99, 71);"></polygon>
	<polygon class="st0" points="154.866,236.081 158.022,291.759 194.992,291.759 193.905,236.081 	" style="fill: rgb(255, 99, 71);"></polygon>
	<path class="st0" d="M107.509,382.917H136.2l-3.624-64.27H94.872l5.033,57.301C100.243,379.894,103.554,382.917,107.509,382.917z" style="fill: rgb(255, 99, 71);"></path>
	<polygon class="st0" points="87.615,236.081 92.508,291.759 131.052,291.759 127.905,236.081 	" style="fill: rgb(255, 99, 71);"></polygon>
	<path class="st0" d="M98.093,410.694c-6.87,0-13.123-2.57-17.917-6.862c-4.786-4.299-8.015-10.23-8.764-17.068l-0.017-0.123
		l-0.016-0.19L48.247,215.842h384.442l-9.68,71.437c8.287,0.082,16.319,1.178,24.063,3.048l10.47-77.236h2.24
		c13.666,0,24.754-11.088,24.754-24.754v-11.616c0-13.674-11.088-24.753-24.754-24.753h-50.076h-39.978h-43.692l74.114-54.566
		l-0.008-0.017c4.835-3.41,8.617-7.858,11.153-12.818c2.587-5.058,3.921-10.643,3.93-16.294c0-6.985-2.084-14.12-6.352-20.281
		l0.008,0.008l-3.344-4.836l-0.016-0.009c-3.428-4.966-7.974-8.838-13.04-11.426c-5.058-2.586-10.635-3.921-16.286-3.921
		c-6.994-0.008-14.128,2.076-20.272,6.351l-0.14,0.083l-147.215,108.39l0.017,0.008c-3.666,2.586-6.722,5.766-9.094,9.325h-84.683
		H74.822H24.753C11.079,151.968,0,163.047,0,176.721v11.616c0,13.205,10.354,23.972,23.394,24.68l23.947,176.688h0.008
		c1.474,12.801,7.636,24.128,16.632,32.185c9.061,8.138,21.097,13.056,34.112,13.056H323.17c-3.18-7.67-5.396-15.816-6.714-24.252
		H98.093z M219.004,166.515c0.841-1.607,2.027-3.016,3.658-4.152l0.166-0.107L369.761,54.072c2.01-1.376,4.202-2.01,6.434-2.01
		c1.82,0,3.633,0.429,5.239,1.26c1.614,0.824,3.032,2.018,4.168,3.649l-0.016-0.008l3.353,4.835v0.008
		c1.392,2.018,2.026,4.209,2.035,6.466c0,1.812-0.429,3.625-1.261,5.239c-0.84,1.614-2.026,3.031-3.657,4.159l-0.132,0.091
		L238.965,185.964c-2.01,1.376-4.202,2.01-6.442,2.018c-1.813,0-3.625-0.437-5.239-1.268c-1.614-0.824-3.015-2.026-4.152-3.649
		l-3.353-4.836v0.008c-1.392-2.018-2.018-4.218-2.026-6.475C217.752,169.95,218.181,168.13,219.004,166.515z" style="fill: rgb(255, 99, 71);"></path>
	<path class="st0" d="M421.955,304.091c-49.739,0-90.045,40.315-90.045,90.054c0,49.73,40.306,90.045,90.045,90.045
		c49.73,0,90.045-40.315,90.045-90.045C512,344.406,471.685,304.091,421.955,304.091z M416.847,436.206l-43.05-34.441l16.336-20.421
		l22.34,17.876l37.637-48.388l20.652,16.056L416.847,436.206z" style="fill: rgb(255, 99, 71);"></path>
</g>
</svg>
