<!--?xml version="1.0" encoding="utf-8"?-->
<!-- Generator: Adobe Illustrator 18.1.1, SVG Export Plug-In . SVG Version: 6.00 Build 0)  -->

<svg version="1.1" id="_x32_" xmlns="http://www.w3.org/2000/svg" xmlns:xlink="http://www.w3.org/1999/xlink" x="0px" y="0px" viewBox="0 0 512 512" style="width: 256px; height: 256px; opacity: 1;" xml:space="preserve">
<style type="text/css">
	.st0{fill:#4B4B4B;}
</style>
<g>
	<path class="st0" d="M421.948,304.09c-49.738,0-90.035,40.314-90.035,90.052c0,49.73,40.297,90.044,90.035,90.044
		S512,443.872,512,394.142C512,344.404,471.686,304.09,421.948,304.09z M473.399,409.151H370.497v-30.026h102.902V409.151z"></path>
	<polygon class="st0" points="257.191,382.915 258.451,318.646 222.486,318.646 223.738,382.915 	"></polygon>
	<polygon class="st0" points="388.43,291.759 393.315,236.082 353.025,236.082 349.879,291.759 	"></polygon>
	<polygon class="st0" points="285.931,291.759 322.909,291.759 326.055,236.082 287.035,236.082 	"></polygon>
	<polygon class="st0" points="321.393,318.646 285.412,318.646 284.152,382.915 317.76,382.915 	"></polygon>
	<polygon class="st0" points="260.074,236.082 220.863,236.082 221.95,291.759 258.978,291.759 	"></polygon>
	<polygon class="st0" points="196.777,382.915 195.517,318.646 159.528,318.646 163.176,382.915 	"></polygon>
	<polygon class="st0" points="154.864,236.082 158.019,291.759 194.99,291.759 193.902,236.082 	"></polygon>
	<path class="st0" d="M107.508,382.915h28.69l-3.625-64.269H94.871l5.033,57.3C100.242,379.892,103.554,382.915,107.508,382.915z"></path>
	<polygon class="st0" points="87.614,236.082 92.507,291.759 131.05,291.759 127.903,236.082 	"></polygon>
	<path class="st0" d="M98.092,410.691c-6.87,0-13.122-2.57-17.917-6.862c-4.786-4.299-8.015-10.23-8.764-17.068l-0.017-0.123
		l-0.016-0.19L48.248,215.842h384.434l-9.679,71.436c8.286,0.082,16.319,1.178,24.061,3.048l10.47-77.235h2.24
		c13.666,0,24.754-11.087,24.754-24.753v-11.615c0-13.674-11.088-24.753-24.754-24.753h-50.075h-39.977h-43.692l74.112-54.565
		l-0.008-0.017c4.835-3.41,8.616-7.858,11.153-12.817c2.587-5.058,3.922-10.643,3.93-16.294c0-6.985-2.084-14.12-6.352-20.28
		l0.008,0.008l-3.345-4.836l-0.016-0.008c-3.427-4.967-7.974-8.838-13.04-11.426c-5.058-2.586-10.635-3.92-16.286-3.92
		c-6.994-0.008-14.127,2.076-20.272,6.351l-0.14,0.082L208.564,142.636l0.017,0.008c-3.666,2.586-6.722,5.766-9.094,9.325h-84.681
		H74.822H24.754C11.08,151.969,0,163.048,0,176.723v11.615c0,13.204,10.355,23.971,23.395,24.68l23.947,176.684h0.008
		c1.474,12.801,7.636,24.128,16.632,32.184c9.061,8.138,21.096,13.056,34.112,13.056h225.072c-3.18-7.669-5.396-15.816-6.713-24.251
		H98.092z M219.001,166.517c0.84-1.607,2.027-3.016,3.658-4.152l0.166-0.107L369.755,54.075c2.01-1.376,4.202-2.01,6.434-2.01
		c1.82,0,3.633,0.429,5.239,1.26c1.614,0.824,3.032,2.018,4.168,3.649l-0.016-0.008l3.352,4.835v0.008
		c1.392,2.018,2.027,4.209,2.035,6.466c0,1.812-0.428,3.625-1.261,5.239c-0.84,1.614-2.026,3.031-3.657,4.159l-0.132,0.091
		L238.961,185.965c-2.01,1.376-4.201,2.01-6.441,2.018c-1.813,0-3.625-0.437-5.239-1.268c-1.614-0.824-3.015-2.026-4.152-3.649
		l-3.353-4.836v0.008c-1.392-2.018-2.018-4.218-2.026-6.475C217.75,169.952,218.178,168.131,219.001,166.517z"></path>
</g>
</svg>
