<?xml version="1.0" encoding="UTF-8" standalone="no"?>
<!DOCTYPE svg PUBLIC "-//W3C//DTD SVG 1.1//EN" "http://www.w3.org/Graphics/SVG/1.1/DTD/svg11.dtd">
<svg version="1.1" xmlns="http://www.w3.org/2000/svg" xmlns:xlink="http://www.w3.org/1999/xlink" preserveAspectRatio="xMidYMid meet" viewBox="0 0 640 640" width="640" height="640"><defs><path d="M339.98 395.41L349.96 395.99L359.92 396.79L369.86 397.83L379.75 399.09L389.59 400.57L399.38 402.28L409.1 404.22L418.74 406.38L428.3 408.76L437.76 411.36L447.11 414.18L456.35 417.22L465.47 420.48L474.46 423.96L483.3 427.65L491.99 431.56L500.51 435.68L508.87 440.02L517.05 444.57L525.03 449.33L532.82 454.3L540.4 459.49L547.76 464.88L554.89 470.48L561.78 476.28L568.43 482.29L574.82 488.51L580.11 494.06L579.52 494.96L572.58 504.81L565.28 514.38L557.63 523.66L549.62 532.63L541.29 541.29L532.63 549.63L523.66 557.63L514.38 565.28L504.81 572.59L494.96 579.52L484.83 586.09L474.44 592.27L463.79 598.05L452.91 603.43L441.79 608.4L430.45 612.94L418.89 617.04L407.13 620.7L395.18 623.91L394.71 624.02L245.29 624.02L244.82 623.91L232.86 620.7L221.11 617.04L209.55 612.94L198.21 608.4L187.09 603.43L176.2 598.05L165.56 592.27L155.17 586.09L145.04 579.52L135.19 572.59L125.62 565.28L116.34 557.63L107.37 549.63L98.71 541.29L90.37 532.63L82.37 523.66L74.71 514.38L67.41 504.81L60.47 494.96L59.89 494.06L65.17 488.51L71.57 482.3L78.21 476.28L85.11 470.48L92.24 464.88L99.6 459.49L107.17 454.3L114.96 449.33L122.95 444.57L131.12 440.02L139.48 435.68L148.01 431.56L156.69 427.65L165.54 423.96L174.52 420.48L183.64 417.22L192.88 414.18L202.24 411.36L211.7 408.76L221.25 406.38L230.9 404.22L240.62 402.28L250.4 400.57L260.25 399.09L270.14 397.83L280.07 396.79L290.03 395.99L300.01 395.41L310.01 395.07L320 394.95L329.99 395.07L339.98 395.41Z" id="m4hzkwm7i6"></path><path d="M470.9 197.46C470.9 114.12 403.34 46.56 319.99 46.56C236.65 46.56 169.1 114.12 169.1 197.46C169.1 280.8 236.65 348.36 319.99 348.36C403.34 348.36 470.9 280.8 470.9 197.46Z" id="a1mYCphr1g"></path><path d="M633.01 320C633.01 492.76 492.76 633.01 320 633.01C147.24 633.01 6.99 492.76 6.99 320C6.99 147.24 147.24 6.99 320 6.99C492.76 6.99 633.01 147.24 633.01 320Z" id="b17Z2xbGlu"></path></defs><g><g><g><use xlink:href="#m4hzkwm7i6" opacity="1" fill="#4b4b4b" fill-opacity="1"></use><g><use xlink:href="#m4hzkwm7i6" opacity="1" fill-opacity="0" stroke="#4b4b4b" stroke-width="10" stroke-opacity="1"></use></g></g><g><use xlink:href="#a1mYCphr1g" opacity="1" fill="#4b4b4b" fill-opacity="1"></use><g><use xlink:href="#a1mYCphr1g" opacity="1" fill-opacity="0" stroke="#000000" stroke-width="1" stroke-opacity="0"></use></g></g><g><use xlink:href="#b17Z2xbGlu" opacity="1" fill="#4b4b4b" fill-opacity="0"></use><g><use xlink:href="#b17Z2xbGlu" opacity="1" fill-opacity="0" stroke="#4b4b4b" stroke-width="10" stroke-opacity="1"></use></g></g></g></g></svg>