<?xml version="1.0" encoding="UTF-8" standalone="no"?>
<!DOCTYPE svg PUBLIC "-//W3C//DTD SVG 1.1//EN" "http://www.w3.org/Graphics/SVG/1.1/DTD/svg11.dtd">
<svg version="1.1" xmlns="http://www.w3.org/2000/svg" xmlns:xlink="http://www.w3.org/1999/xlink" preserveAspectRatio="xMidYMid meet" viewBox="0 0 640 640" width="640" height="640"><defs><path d="M124.42 446.09L38.57 359.09L0 320L38.57 280.91L124.42 193.91L162.99 233.01L104.41 292.36L432.99 292.36L432.99 347.64L104.41 347.64L162.99 406.99L124.42 446.09Z" id="kDXJfRuRP"></path><path d="M530.92 25.22L276.39 25.22L221.85 25.22L167.31 25.22L167.31 80.49L167.31 117.34L167.31 209.46L221.85 209.46L258.21 209.46L258.21 117.34L549.1 117.34L549.1 522.66L258.21 522.66L258.21 430.54L221.85 430.54L167.31 430.54L167.31 522.66L167.31 559.51L167.31 614.78L221.85 614.78L276.39 614.78L530.92 614.78L585.46 614.78L640 614.78L640 559.51L640 504.24L640 135.76L640 80.49L640 25.22L585.46 25.22L530.92 25.22Z" id="a9i9DEvb1X"></path></defs><g><g><g><use xlink:href="#kDXJfRuRP" opacity="1" fill="#4b4b4b" fill-opacity="1"></use><g><use xlink:href="#kDXJfRuRP" opacity="1" fill-opacity="0" stroke="#000000" stroke-width="1" stroke-opacity="0"></use></g></g><g><use xlink:href="#a9i9DEvb1X" opacity="1" fill="#4b4b4b" fill-opacity="1"></use><g><use xlink:href="#a9i9DEvb1X" opacity="1" fill-opacity="0" stroke="#000000" stroke-width="1" stroke-opacity="0"></use></g></g></g></g></svg>