<!--?xml version="1.0" encoding="utf-8"?-->
<!-- Generator: Adobe Illustrator 18.1.1, SVG Export Plug-In . SVG Version: 6.00 Build 0)  -->

<svg version="1.1" id="_x32_" xmlns="http://www.w3.org/2000/svg" xmlns:xlink="http://www.w3.org/1999/xlink" x="0px" y="0px" viewBox="0 0 512 512" style="width: 256px; height: 256px; opacity: 1;" xml:space="preserve">
<style type="text/css">
	.st0{fill:#4B4B4B;}
</style>
<g>
	<path class="st0" d="M332.758,0c-70.372,0-129.994,47.991-146.987,113.05c-9.623,31.253-21.498,62.439-93.626,122.541
		c-1.858,1.548-3.567,3.164-5.248,4.778c-36.05,27.685-59.313,71.199-59.313,120.175C27.584,444.191,95.393,512,179.04,512
		c21.376,0,40.406-5.032,60.148-12.44c38.547-13.471,95.015-43.315,161.408-138.922c60.101-86.557,80.886-158.638,83.618-209.182
		C488.739,67.931,416.405,0,332.758,0z M223.998,181.188c-8.609,24.652-26.868,50.667-45.606,63.04
		c-16.316,10.778-38.162-8.825-25.16-20.644c17.217-15.622,39.505-57.313,41.532-59.932
		C206.34,148.706,230.993,161.154,223.998,181.188z" style="fill: rgb(255, 255, 255);"></path>
</g>
</svg>
